<svg width="1000" height="400" style="" version="1.1" xmlns="http://www.w3.org/2000/svg" xmlns:xlink="http://www.w3.org/1999/xlink"><style  type="text/css">svg { background-color: cadetblue; }
text.name { font-size: 6px; font-family: Cambria, Cochin, Georgia, Times, "Times New Roman", serif; font-weight: bold; }
text.count { font-size: 8px; font-family: "Lucida Sans", "Lucida Sans Regular", "Lucida Grande", "Lucida Sans Unicode", Geneva, Verdana, sans-serif; text-anchor: middle; font-weight: bold; }
path.trip-path { stroke-dasharray: 1, 1; }
.mapline { fill: rgb(209, 190, 157); }
text.title { font-size: 35px; font-family: Georgia, "Times New Roman", Times, serif; text-anchor: middle; text-align: center; font-style: italic; fill: whitesmoke; }
text.subtitle { font-size: 12px; font-family: Georgia, "Times New Roman", Times, serif; text-anchor: middle; text-align: center; font-style: italic; fill: whitesmoke; }</style><svg><g id="map-group"><path class="mapline" d="M428.4,267.599L428.874,268.655L427.646,270.034L425.384,271.091L423.289,273.233L423.066,272.734L423.848,272.323L423.764,271.355L424.686,269.301L427.646,267.276ZM462.636,262.463L463.083,261.641L463.558,261.729L463.474,262.551ZM464.647,261.964L464.256,262.375L463.865,261.641L464.395,261.406ZM443.926,258.706L444.708,260.585L444.457,261.406L443.451,261.318L442.921,258.383ZM501.48,262.463L502.653,262.874L504.273,262.698L505.138,263.285L506.981,262.962L507.372,263.519L508.238,263.519L508.322,264.253L505.92,264.429L505.138,263.842L504.356,264.429L502.96,263.519L501.48,263.519L500.251,262.287L501.089,261.964ZM498.297,260.907L499.162,261.494L499.078,261.817L497.682,261.406L497.543,260.673ZM490.701,257.649L492.265,257.972L492.488,258.383L490.31,258.618L489.388,258.236L489.528,257.473ZM497.068,255.859L496.509,255.859L495.895,255.213L497.152,255.36ZM470.064,259.763L469.143,260.086L468.053,259.851L468.975,259.293ZM488.299,257.649L488.216,258.236L486.987,258.06L487.741,257.15ZM489.305,252.278L489.696,253.481L489.081,253.892L488.523,253.569L488.216,251.632L489.081,251.28ZM415.694,249.988L415.219,249.812L417.006,249.489L416.699,250.076ZM565.01,245.408L562.525,247.786L561.436,250.076L560.905,249.753L559.983,249.988L559.202,251.691L558.28,251.867L557.805,252.836L557.414,251.867L556.018,250.957L553.226,250.399L553.226,249.9L551.913,248.608L550.042,249.078L549.176,248.432L546.244,249.577L539.654,253.98L535.214,254.391L532.896,256.27L531.974,255.947L530.02,258.236L527.925,259.528L526.92,259.44L526.613,260.027L527.618,257.884L527.311,257.15L526.529,257.415L526.389,258.794L525.607,258.794L524.295,258.471L522.647,257.327L519.492,257.826L517.537,257.004L516.308,257.649L515.526,259.44L511.03,261.964L510.416,261.641L511.114,260.907L511.477,261.142L511.812,260.174L512.175,260.35L512.734,259.352L512.566,258.97L513.265,258.618L512.427,258.618L513.209,257.826L511.645,256.094L511.561,254.949L512.957,255.213L514.661,254.714L514.828,255.272L518.459,256.182L519.939,257.092L519.883,256.505L520.497,256.358L520.33,255.272L522.284,254.714L522.284,253.98L521.642,253.335L519.548,253.246L518.012,252.425L515.303,250.223L513.655,249.753L512.566,249.988L512.203,250.722L511.03,250.546L511.561,251.867L510.332,251.28L510.332,251.955L509.327,252.513L509.243,253.335L509.076,252.689L507.931,253.158L508.015,254.303L507.372,253.98L505.976,254.538L505.92,254.949L506.674,255.213L506.618,256.505L507.372,257.884L506.451,259.029L504.747,257.972L505.753,258.941L505.753,259.528L504.356,260.496L504.44,259.763L503.965,259.44L504.58,259.528L504.831,258.706L503.965,257.649L504.356,257.004L503.1,256.505L501.955,256.769L501.871,257.15L503.044,257.561L502.485,258.295L503.183,258.471L503.435,259.029L503.044,259.205L502.793,258.794L502.178,259.293L501.257,258.559L500.307,258.559L500.251,257.884L498.297,257.649L497.207,256.182L498.073,256.358L497.85,255.683L495.448,254.303L494.582,254.479L494.275,253.834L493.661,254.391L491.79,254.802L490.477,255.859L489.835,254.714L490.31,253.657L489.835,250.076L488.83,249.988L489.165,251.133L487.992,250.869L486.121,249.166L483.636,248.021L482.63,245.496L480.536,244.997L476.515,245.673L472.075,249.019L471.237,249.078L470.93,247.933L469.757,248.109L469.282,249.166L469.673,249.753L470.762,249.988L470.455,250.957L469.45,251.544L468.584,250.076L468.053,250.135L467.83,250.722L468.584,252.513L467.97,253.246L467.188,252.836L467.439,252.014L466.099,251.779L466.49,252.924L465.875,253.746L466.099,254.391L465.736,255.125L465.038,255.125L465.038,255.947L463.167,257.15L462.776,256.358L462.161,256.593L461.77,255.771L458.894,253.892L458.978,253.481L460.542,254.215L461.072,254.949L461.547,254.626L461.603,255.448L462.385,256.094L461.91,254.714L460.151,253.98L459.76,253.246L456.66,252.337L456.269,251.28L454.398,250.546L452.22,251.045L451.215,250.399L447.891,245.673L446.719,244.674L444.624,244.117L444.317,242.649L441.357,241.503L439.737,241.592L437.559,242.56L436.107,241.592L430.187,242.414L425.3,244.205L420.888,246.495L417.788,246.318L416.168,247.14L415.079,248.285L412.203,248.608L408.405,250.311L407.148,248.109L405.305,247.199L403.909,248.344L403.351,247.786L401.954,247.933L400.949,248.696L400.809,249.489L398.24,249.9L398.771,248.608L398.324,248.197L397.766,248.608L397.766,248.021L399.106,247.14L398.38,246.407L398.771,245.35L396.062,243.882L391.79,244.263L391.79,244.762L391.566,244.351L389.779,244.674L386.54,246.876L386.205,247.551L385.674,247.287L386.205,248.021L384.976,247.933L384.669,248.52L383.412,248.755L381.401,246.641L379.921,246.818L377.995,246.084L377.129,246.23L376.291,245.496L375.202,245.35L374.42,244.351L372.884,244.616L372.326,244.117L372.326,243.206L371.544,242.737L371.711,242.238L368.695,241.181L367.215,241.181L367.048,242.649L366.601,241.357L365.735,242.061L364.814,241.592L362.105,242.003L360.848,242.737L360.457,245.584L359.452,245.731L358.447,247.052L358.447,246.23L358.754,246.407L359.285,245.673L358.977,244.851L357.916,244.528L357.916,243.617L358.447,243.206L359.285,244.117L360.15,242.414L359.536,240.535L357.916,240.535L357.581,239.801L359.229,240.27L360.234,239.624L360.457,238.479L357.916,238.978L357.916,237.51L357.358,237.275L356.967,237.657L357.051,237.011L356.129,237.011L354.872,238.421L353.085,238.802L352.08,240.212L351.158,240.212L350.46,241.004L348.366,240.535L348.059,241.357L348.896,243.148L348.45,244.205L347.584,244.351L346.662,243.383L345.964,243.617L345.713,245.262L346.355,245.996L349.678,245.35L351.549,242.883L352.247,242.883L352.471,244.762L351.465,246.818L349.846,247.874L348.841,247.786L345.489,248.931L345.015,249.812L343.088,250.898L342.781,252.014L341.915,251.867L341.384,252.425L340.463,252.014L340.295,252.513L339.513,252.425L337.726,253.569L335.101,253.481L335.018,252.689L333.007,252.513L332.448,251.691L330.522,252.689L330.131,254.714L329.293,255.448L328.26,255.037L328.958,254.215L327.729,252.836L326.165,254.303L325.551,253.98L325.858,253.07L324.769,252.601L323.68,253.158L321.976,253.07L320.273,253.98L319.128,253.892L318.57,253.481L318.653,252.601L318.123,252.278L317.788,251.045L318.179,249.078L316.391,249.489L314.855,248.52L314.241,248.608L313.99,247.551L312.538,246.876L311.979,247.933L312.901,248.755L312.845,249.342L312.063,249.078L311.281,249.9L313.543,249.812L315.554,250.722L317.173,252.19L317.397,253.335L316.559,254.391L315.302,254.538L314.465,255.36L313.459,255.037L311.058,255.771L311.058,257.092L312.147,257.15L313.068,258.06L314.632,258.471L313.208,260.408L310.667,259.851L310.667,259.293L309.661,258.618L306.869,258.559L306.618,258.148L305.78,258.794L305.165,258.559L303.825,259.205L304.523,256.916L303.378,256.769L302.987,256.094L302.038,256.182L302.038,255.36L301.423,255.272L301.423,254.626L300.111,254.215L299.943,253.481L299.022,253.746L297.011,253.07L296.704,251.045L297.095,250.634L296.704,250.135L296.006,250.223L296.229,249.254L295.531,249.812L296.09,248.432L295.14,247.375L294.302,247.287L293.995,247.698L293.604,247.052L293.046,247.551L293.046,246.876L292.124,247.698L291.957,247.052L290.868,247.287L291.035,247.874L291.733,247.874L291.426,248.608L290.868,248.432L291.733,249.342L291.733,250.135L291.035,250.487L289.471,249.166L289.332,250.399L288.773,248.755L287.628,248.021L287.852,247.375L288.773,247.14L288.466,246.641L287.461,246.641L287.377,247.786L286.623,248.344L285.534,248.285L285.311,247.551L284.529,247.052L282.49,247.375L282.043,246.641L279.558,248.285L277.156,246.876L275.983,247.199L274.894,246.142L272.8,247.287L271.795,246.818L271.32,247.874L270.007,248.843L270.65,249.753L270.091,251.133L269.784,250.634L267.606,250.311L268.472,250.223L268.779,248.696L267.522,249.019L268.081,249.577L267.299,249.812L267.606,250.957L267.075,252.836L266.601,253.158L266.07,252.689L265.679,253.423L265.204,253.246L264.199,254.391L262.887,254.802L260.625,254.714L260.401,254.156L259.843,254.391L259.619,253.423L259.005,253.569L259.48,254.156L259.228,254.479L258.307,254.215L256.911,254.626L255.961,254.303L256.436,253.246L255.347,253.892L254.202,253.335L253.867,252.689L251.856,252.278L250.627,252.425L249.762,251.955L247.528,252.425L247.528,251.456L246.439,250.135L244.651,249.342L241.775,249.166L240.546,249.753L238.843,251.544L238.284,252.747L238.899,253.892L238.899,255.272L239.373,256.006L240.686,256.681L240.854,258.794L239.457,258.941L239.373,257.649L238.899,257.649L238.759,258.471L237.586,258.706L236.888,257.737L236.972,256.916L237.977,256.358L237.363,253.246L234.654,252.19L231.862,253.012L232.616,252.278L232.699,251.544L232.001,249.577L232.616,247.199L231.778,242.883L232.476,241.68L232.308,240.858L234.179,239.066L241.3,236.13L242.557,236.189L243.478,235.132L243.869,232.371L242.557,230.815L241.635,231.138L241.635,230.169L240.463,230.815L239.932,229.846L239.29,230.081L235.743,229.112L235.017,228.201L233.314,228.466L233.314,227.966L236.19,225.029L236.358,224.119L235.576,221.916L236.665,220.448L236.972,219.243L238.759,219.713L240.379,218.421L239.988,217.275L239.066,217.187L238.368,216.306L237.195,218.098L236.804,218.01L237.112,217.187L236.19,216.952L236.106,216.453L236.665,216.306L235.492,214.925L236.358,214.161L236.106,213.192L236.972,213.104L236.972,212.634L236.274,212.369L236.413,211.723L237.195,211.253L237.67,210.019L240.295,208.638L241.161,206.259L240.295,203.732L240.854,201.616L239.764,199.971L239.764,199.089L241.775,197.355L242.557,194.417L242.082,192.124L240.937,191.654L240.072,190.096L242.641,188.127L245.489,183.983L247.751,182.572L248.84,180.867L249.147,178.751L248.533,176.869L247.36,176.458L247.667,174.988L245.182,174.341L243.339,172.224L243.171,166.814L241.691,163.815L239.15,160.698L239.066,156.875L238.508,155.14L237.363,153.522L235.799,152.846L230.689,151.64L228.985,151.787L226.277,150.816L224.098,146.404L222.618,144.522L220.44,138.55L219.826,137.814L218.82,137.579L216.726,134.548L216.028,131.93L216.503,130.959L218.597,129.9L222.088,129.076L222.535,129.076L222.786,129.635L223.624,128.517L224.489,128.664L225.411,128.016L228.762,127.428L232.616,125.898L232.867,125.397L234.57,124.75L234.57,124.338L237.977,123.102L238.592,121.63L239.457,120.895L242.557,119.6L242.641,119.188L244.344,118.776L247.053,117.069L248.142,115.656L248.533,111.182L247.835,108.474L247.528,107.914L247.137,108.062L247.36,107.65L246.522,104.558L245.126,102.998L244.651,101.438L244.651,97.61L245.182,97.257L245.824,95.314L248.617,94.401L249.147,92.87L253.252,89.424L255.207,89.424L256.911,88.364L260.01,87.863L262.272,88.276L263.976,87.216L266.126,87.039L269.477,87.863L271.571,87.451L271.711,87.863L272.66,87.952L276.207,87.775L277.687,87.216L278.245,87.952L280.954,87.952L285.227,89.336L286.316,88.835L285.925,88.364L286.93,88.423L288.773,89.895L289.164,89.66L291.259,90.897L294.302,91.721L297.849,94.342L300.027,93.517L300.893,94.077L302.82,94.165L303.518,95.049L304.691,95.137L306.478,94.165L308.712,94.254L311.504,95.402L312.203,95.137L316.559,96.55L319.575,96.609L322.451,95.961L323.066,95.402L326.724,94.813L327.645,95.049L328.958,94.577L329.209,93.989L330.131,94.577L333.482,94.401L335.018,95.137L335.799,94.901L337.642,95.549L339.821,95.549L340.994,94.489L344.484,94.666L348.896,93.665L351.075,93.841L352.862,94.165L356.436,95.785L357.665,96.933L359.061,97.11L362.021,98.759L362.552,98.582L364.255,99.406L366.908,99.553L367.439,99.082L369.533,98.817L373.275,100.142L375.37,99.141L375.593,97.757L374.895,97.757L374.727,97.345L375.509,96.786L376.682,96.786L377.464,97.345L380.256,97.434L381.01,96.374L382.574,95.726L382.798,94.99L382.016,95.049L382.1,94.666L383.663,94.666L383.803,95.225L384.669,95.461L391.036,95.137L391.873,94.342L391.482,93.841L393.661,93.606L395.224,94.077L396.146,93.429L396.286,93.989L396.844,93.93L396.621,93.517L397.319,93.517L397.933,94.254L401.647,94.577L408.796,96.55L413.208,96.138L414.214,95.225L413.99,94.577L414.995,94.666L416.308,95.549L417.788,95.461L421.586,97.198L421.893,97.993L422.368,97.757L422.368,97.021L424.602,96.285L425.16,97.11L426.473,97.257L428.092,98.494L429.349,98.258L431.276,99.141L431.583,98.405L432.281,98.405L436.163,99.495L436.554,100.29L443.312,101.026L445.713,100.378L446.942,98.494L447.417,98.405L447.947,96.197L448.813,95.726L452.471,95.049L454.929,95.225L456.409,94.725L458.503,95.049L460.151,93.989L459.062,93.665L459.676,93.429L461.463,93.665L460.542,93.93L460.849,94.813L463.25,95.549L464.647,96.786L465.484,96.374L465.261,95.461L465.736,95.137L469.226,96.285L470.539,95.785L472.019,95.873L475.733,97.345L476.571,97.021L476.208,95.961L476.571,95.726L478.135,96.874L479.698,97.198L480.396,98.346L481.402,97.757L481.541,98.906L482.798,98.67L482.938,99.23L484.418,99.082L484.585,100.555L484.892,100.142L485.898,100.231L484.809,98.817L486.037,99.141L487.685,98.405L489.081,99.642L491.706,100.231L494.275,97.934L495.057,97.993L495.811,97.434L499.078,98.759L500,98.346L499.469,100.231L500.698,99.818L504.273,101.114L509.634,101.85L514.828,101.703L515.359,100.967L515.834,101.703L517.006,101.762L519.241,100.613L519.799,103.646L521.195,105.118L523.29,106.178L525.133,106.266L525.915,105.854L526.389,106.178L528.316,105.353L530.969,102.498L532.282,102.085L532.282,102.998L533.203,104.558L534.851,105.206L535.214,105.942L535.214,106.443L534.544,106.855L534.907,106.354L534.599,105.442L533.454,105.206L532.756,104.293L532.114,104.706L532.756,106.178L534.208,107.914L536.778,108.886L539.095,107.914L540.436,108.15L539.877,109.445L540.659,110.446L540.575,112.742L541.888,112.742L544.234,110.858L545.379,110.505L546.077,109.445L547.808,109.21L548.031,108.062L547.417,107.237L546.468,107.09L545.546,107.826L543.675,106.266L542.921,106.089L542.279,106.59L542.279,105.707L541.274,104.647L541.832,103.41L542.837,103.322L543.368,103.97L543.759,103.646L545.379,103.822L545.379,104.382L546.16,104.293L545.853,103.558L544.848,103.086L543.535,103.41L541.441,102.763L540.883,102.763L540.492,103.499L540.101,102.498L539.57,103.086L539.04,102.91L539.179,103.499L538.649,103.97L537.699,101.938L536.554,101.349L536.163,100.378L535.688,100.29L535.856,99.73L536.387,99.642L537.559,100.555L539.57,100.967L541.274,100.878L541.972,101.291L542.837,100.878L543.535,101.703L545.714,101.526L546.384,100.967L547.166,101.438L547.026,102.085L547.808,102.498L547.082,103.322L547.166,103.881L548.813,104.382L549.26,104.971L549.819,104.882L549.735,104.146L547.948,103.558L548.115,103.086L550.126,103.499L550.964,104.293L552.751,104.146L554.231,105.118L556.241,105.029L557.638,105.707L560.291,105.118L562.134,107.502L564.312,108.238L565.624,108.15L566.49,107.414L567.803,108.238L570.763,107.826L570.818,107.179L572.075,106.501L572.857,104.146L575.007,105.118L575.091,104.47L574.337,104.647L573.164,103.881L573.471,103.41L575.873,104.558L576.655,104.47L576.739,103.646L577.353,103.558L578.526,104.706L582.715,106.089L592.014,108.062L594.555,108.15L595.979,107.414L597.04,107.414L597.822,106.354L597.124,106.089L597.124,105.707L598.828,105.707L600.391,106.59L600.475,107.326L604.887,109.71L602.402,112.389L599.386,116.745L603.966,111.182L605.418,110.181L609.998,111.005L612.176,110.858L614.829,111.977L616.756,111.741L617.845,112.389L618.85,114.685L620.944,115.509L621.866,117.628L622.871,118.452L626.055,118.364L628.456,115.509L629.797,114.773L630.02,115.833L627.535,118.687L628.009,119.6L630.634,119.276L633.594,117.804L634.125,117.069L635.075,117.216L635.438,117.804L634.739,120.071L635.075,121.16L635.996,121.807L637.616,121.954L638.314,123.691L640.324,124.573L640.715,125.486L642.977,126.957L643.759,127.192L645.686,126.545L646.468,126.045L647.082,124.573L649.093,124.25L649.344,126.31L650.35,126.692L650.489,127.693L652.137,129.311L654.371,130.459L658.029,131.282L659.342,130.635L660.822,130.547L660.961,131.194L662.358,132.253L665.094,132.342L667.496,131.606L668.334,130.782L668.417,129.811L669.032,129.635L669.423,128.575L670.651,127.516L670.512,126.78L671.042,127.045L671.126,127.928L671.992,128.105L671.601,128.84L671.992,130.047L672.913,130.37L675.231,128.428L675.399,126.692L676.32,126.133L676.097,124.838L677.102,125.221L677.968,124.662L678.275,125.633L679.057,125.721L679.057,126.869L678.107,127.604L677.577,131.135L675.929,131.694L676.404,133.401L675.79,134.46L673.695,135.872L673.695,137.255L672.746,137.079L673.22,137.726L674.393,137.902L674.31,138.726L673.528,139.05L673.444,139.609L674.477,139.962L675.482,141.256L675.091,146.639L675.175,147.698L675.873,147.963L675.622,149.022L675.929,149.346L675.175,151.64L674.086,152.052L673.919,152.61L673.081,153.022L672.997,153.669L673.528,154.081L673.919,153.581L674.393,154.581L674.393,154.993L673.444,155.316L673.611,156.198L675.929,156.051L676.097,156.934L674.924,157.522L674.924,157.992L675.79,158.492L674.226,159.728L674.393,161.257L675.873,163.315L677.018,163.962L678.498,163.962L679.671,163.227L679.895,162.256L681.682,162.08L681.207,163.227L680.286,163.492L680.286,164.55L682.073,167.491L682.157,168.961L684.391,170.901L685.089,170.813L685.871,171.577L685.172,172.048L685.089,173.047L684.558,173.047L682.38,171.166L681.458,171.96L681.207,172.959L681.821,173.841L681.766,174.9L681.067,174.9L680.9,175.399L681.514,175.958L683.301,176.134L683.301,176.957L682.464,176.634L681.598,176.957L681.458,176.222L680.676,175.635L680.118,175.811L680.062,176.781L679.727,176.781L679.057,173.929L678.275,173.283L677.325,173.43L678.107,171.96L676.962,171.489L675.706,173.047L676.627,171.577L676.627,170.666L674.31,170.166L672.439,171.636L672.439,172.636L672.913,173.106L671.824,174.018L672.131,174.488L673.779,174.753L673.779,175.899L674.31,176.546L674.002,177.104L673.081,177.104L672.997,178.339L673.919,178.016L674.477,177.104L675.175,177.604L675.008,178.662L674.086,179.397L674.226,179.985L672.913,180.132L672.299,178.104L671.349,179.397L671.74,179.985L670.986,179.897L670.344,180.632L669.283,179.897L668.417,179.985L667.244,178.339L664.927,178.016L663.056,180.132L661.967,179.809L660.961,180.867L659.872,180.367L657.778,181.279L656.772,182.925L656.94,183.336L656.382,183.571L657.331,185.129L657.387,186.423L656.465,186.423L655.544,184.718L655.069,185.511L654.538,185.511L654.287,184.777L653.282,184.63L652.835,184.777L652.891,185.276L652.528,185.188L651.439,183.16L648.87,183.16L646.999,184.042L644.374,186.746L643.061,190.596L638.928,192.536L636.219,195.004L636.303,196.474L634.6,198.354L632.813,201.851L632.645,203.879L633.427,204.466L633.427,205.436L632.282,205.847L630.02,210.107L629.936,211.312L630.411,212.311L629.099,212.634L628.149,214.103L628.54,215.895L628.093,216.717L628.54,217.363L627.926,218.245L628.624,218.656L628.093,218.744L628.009,219.889L627.311,219.801L627.228,220.859L626.753,220.859L626.613,221.681L625.999,221.916L624.351,222.18L622.564,220.301L622.033,220.301L619.325,222.592L619.464,223.473L618.068,222.504L616.839,223.238L616.979,224.207L617.845,223.708L618.375,224.06L617.761,227.467L619.073,229.67L618.152,230.492L617.984,232.283L618.543,232.371L618.682,232.929L617.984,233.664L618.068,234.662L617.454,234.075L617.537,235.396L616.448,234.574L614.577,234.163L611.17,237.422L608.909,236.688L608.601,237.099L607.512,236.776L605.111,239.213L604.58,240.681L603.575,241.68L603.407,242.649L602.011,241.092L600.308,241.68L599.917,241.415L597.599,243.206L595.337,245.731L594.192,246.142L590.366,245.584L588.439,247.052L586.429,246.729L584.027,247.463L579.755,246.23L577.576,248.285L576.571,248.285L572.773,244.997L569.981,245.35L568.724,244.439ZM850.462,238.744L850.462,238.802L850.406,238.802L850.406,238.744ZM718.599,213.368L718.068,213.192L718.068,212.369L718.822,212.457ZM743.508,206.993L743.732,207.816L743.117,207.963L742.81,206.758L743.201,206.435ZM741.246,191.243L741.721,191.654L743.201,191.478L745.742,192.536L748.395,192.301L749.708,193.77L750.964,192.947L755.209,194.916L756.996,194.593L756.773,195.151L757.694,195.093L757.918,195.651L759.705,194.74L760.654,195.798L762.805,196.386L764.285,196.062L765.765,197.208L766.24,196.386L767.943,196.797L768.334,195.886L769.954,195.151L770.428,196.474L770.875,196.474L771.043,195.974L771.573,196.15L772.048,197.62L772.969,197.943L772.746,198.678L773.528,199.471L775.315,198.736L775.846,199.412L774.924,199.471L774.366,200.94L773.36,200.059L771.266,199.736L768.864,200.617L767.859,201.528L766.993,199.089L765.849,199.412L765.374,199.001L765.15,199.471L764.759,199.001L763.838,200.059L763.838,200.705L764.592,200.94L764.452,201.851L763.838,201.528L762.274,202.027L761.967,202.586L761.269,201.528L760.403,201.616L759.007,202.263L759.007,203.555L758.169,202.821L757.918,201.851L757.303,201.851L756.996,202.263L757.248,203.085L756.773,203.173L757.303,204.466L756.075,203.32L756.605,205.201L755.6,205.847L755.6,204.701L755.209,204.643L754.986,205.935L753.813,205.847L753.729,206.347L753.059,205.759L752.193,206.023L751.02,205.436L754.511,204.789L755.377,203.408L754.455,203.408L753.98,202.821L752.807,202.909L752.668,201.616L752.026,202.027L750.797,201.616L750.182,202.498L750.182,201.528L749.401,200.558L748.87,200.558L748.87,201.763L748.395,202.027L748.619,203.497L748.172,203.408L747.53,202.027L745.91,202.498L745.826,203.408L746.608,204.29L746.524,204.789L745.687,204.143L745.296,204.378L745.212,206.082L745.994,206.846L745.91,207.404L745.044,206.993L744.597,207.404L744.905,206.347L743.899,205.7L743.201,206.023L741.33,205.7L740.855,207.316L740.325,207.228L740.325,206.494L739.711,206.023L739.012,206.846L738.314,206.023L738.007,206.846L737.002,207.081L737.225,205.612L736.359,205.348L735.745,206.082L736.611,206.758L736.667,207.404L735.438,207.639L735.215,206.846L734.125,206.993L733.567,207.963L734.042,208.697L733.176,209.05L732.645,208.873L731.64,206.259L730.774,206.082L728.68,207.492L731.417,208.286L732.562,209.696L732.031,210.842L730.076,211.253L729.378,211.899L728.066,211.899L727.591,211.312L727.842,210.019L727.284,209.285L727.675,209.108L727.591,208.227L725.887,207.816L724.659,208.139L724.659,209.373L726.893,209.608L727.535,210.342L725.58,213.045L725.05,213.192L724.966,212.134L724.491,212.134L724.491,213.515L722.788,212.957L723.57,211.635L723.57,211.077L722.955,210.577L720.47,210.489L719.856,211.488L720.554,212.869L719.911,213.192L719.381,212.546L719.548,211.488L716.281,210.489L714.019,211.4L712.874,210.842L707.736,212.134L703.854,214.925L702.235,214.837L702.095,215.307L701.453,215.307L701.062,214.749L698.912,214.984L696.51,214.014L694.472,214.014L693.718,212.957L692.461,212.781L692.293,212.311L691.372,211.987L690.758,209.696L689.138,208.785L689.752,206.67L689.277,203.644L690.897,203.967L691.679,203.32L693.327,203.644L694.164,203.232L697.348,203.732L703.938,201.205L706.591,200.617L707.345,199.882L706.898,195.328L706.424,195.151L706.898,195.151L706.898,194.328L707.596,199.412L709.132,199.559L709.998,198.678L711.785,199.089L714.271,198.59L715.276,197.679L718.822,196.474L726.055,195.475L726.586,194.328L726.446,193.124L727.982,192.213L735.131,191.801L739.152,190.919ZM646.859,192.712L646.077,192.859L645.77,192.389L645.91,193.623L645.211,193.77L645.295,192.066L646.161,192.301L646.552,191.977ZM661.352,182.337L661.129,181.778L661.52,181.514L661.967,182.425ZM689.585,166.079L689.277,166.403L688.272,166.256L688.887,165.432L689.668,165.285ZM687.099,164.697L687.658,165.932L686.178,166.079L683.692,165.344L684,166.02L683.301,166.167L683.385,164.697L682.911,163.815L685.172,163.639L686.401,164.55L686.401,163.727L687.043,163.315ZM780.984,151.728L780.342,151.64L780.202,151.14L780.984,151.14ZM758.476,146.816L758.309,147.375L759.091,148.375L758.951,150.228L758.393,150.904L759.007,151.552L758.867,152.287L757.862,151.875L757.778,150.581L757.248,150.081L755.823,150.316L756.298,148.757L755.293,147.787L756.382,147.875L756.466,147.463L757.387,147.287L758.169,145.816L758.56,145.992ZM680.676,147.228L679.727,146.904L680.062,146.228L680.509,146.316ZM756.298,136.196L756.857,137.902L757.778,139.138L759.649,139.697L761.492,142.315L762.972,141.815L763.056,140.433L763.67,139.373L765.374,141.168L766.77,141.58L768.027,141.433L769.339,139.462L769.814,139.55L769.339,140.756L770.819,141.815L771.741,141.903L772.606,141.021L774.31,141.433L779.504,145.022L780.258,145.08L780.733,146.316L781.906,147.14L782.213,149.581L781.431,149.757L780.258,148.846L778.89,148.757L778.331,148.051L778.499,149.846L779.253,150.316L778.499,151.64L779.336,152.287L779.336,152.787L778.247,152.61L777.717,153.581L777.019,153.757L776.711,153.581L776.711,151.875L776.237,151.552L773.36,152.052L772.914,151.375L773.053,150.728L772.271,150.581L772.355,149.846L771.741,149.757L772.523,149.257L772.355,148.934L771.126,148.934L770.819,148.522L770.121,148.757L769.088,147.287L768.725,147.64L769.032,148.434L766.24,147.698L766.323,148.757L767.161,149.904L767.859,149.757L770.512,150.963L770.568,151.787L770.177,151.875L770.261,152.699L769.814,153.169L771.35,152.61L772.132,153.757L771.964,154.404L771.266,154.257L771.825,155.463L770.735,155.551L771.517,156.698L770.819,156.934L770.819,157.522L770.121,157.345L770.261,155.875L769.479,155.728L768.557,154.728L767.552,152.699L766.24,152.375L766.379,151.228L765.849,151.052L765.765,150.081L764.285,150.228L762.665,148.051L761.967,147.875L761.436,145.022L760.71,144.845L760.263,145.433L760.18,144.433L759.007,143.698L757.778,144.433L758.309,143.286L757.862,141.815L756.549,139.285L755.684,138.726L755.46,137.579L753.589,136.02L754.511,135.931L755.209,136.52L755.907,135.608ZM787.714,143.963L788.58,144.286L788.328,145.345L787.491,145.492L787.63,146.492L788.189,146.404L787.965,147.051L788.803,147.051L788.412,147.698L786.234,147.463L785.787,146.081L783.832,145.022L784,144.433L785.089,144.345L785.927,144.522L786.709,145.345L787.267,144.757L786.485,143.698ZM745.044,143.051L745.687,142.962L745.742,144.433L744.653,143.963L744.039,142.815ZM741.414,140.433L741.554,140.844L740.939,141.58L740.632,139.874ZM779.644,138.403L781.347,139.962L782.129,139.55L781.738,140.668L778.415,140.933L775.93,138.726L776.321,138.226L777.41,138.403L777.549,138.079ZM785.871,139.05L786.485,139.462L786.541,139.785L785.787,139.874L785.229,139.285L785.396,138.726ZM692.07,135.608L692.628,136.02L692.768,136.932L691.623,137.814L691.456,136.667L689.976,135.284L691.763,135.137ZM677.577,138.55L677.884,139.285L678.359,139.285L677.968,140.197L677.493,140.109L677.8,139.373L677.018,139.373L676.627,138.873L676.711,138.226ZM702.793,131.606L703.156,131.694L703.017,132.43L701.76,132.577L701.844,132.018L702.542,132.195L701.928,131.518L702.542,131.282ZM698.13,129.9L698.13,130.547L697.041,131.135L697.739,129.311ZM696.343,129.723L695.868,129.988L695.03,130.047L696.566,128.752ZM691.763,126.633L692.684,127.84L690.674,128.517L690.674,126.957L691.288,127.192L690.674,126.457ZM685.703,123.838L688.496,125.397L688.887,126.78L688.049,126.692L688.496,126.133L687.658,125.486L687.043,126.545L685.48,126.045L684.474,123.779L685.256,123.426L685.089,123.838ZM683.692,122.131L683.162,122.455L682.911,121.719L683.86,121.719ZM264.506,262.052L262.188,263.343L260.485,263.696L258.139,263.109L257.441,263.431L256.603,262.61L257.134,262.228L257.218,262.874L257.525,262.375L258.223,262.962L262.021,262.962L264.73,261.318ZM266.684,258.882L265.288,258.882L264.674,258.383L267.075,258.618ZM286.316,257.561L286.539,257.15L287.237,257.327L287.237,257.649ZM277.994,257.239L277.547,257.239L277.464,256.916L278.301,257.092ZM280.089,256.769L279.949,256.358L280.87,256.358L280.647,256.769ZM291.733,255.272L291.733,255.624L290.114,255.683L288.159,255.36L288.159,255.037L291.035,255.213L291.426,254.538ZM296.62,253.569L298.491,254.538L297.626,254.626L295.755,253.746L293.437,254.156L294.833,253.246ZM281.652,250.399L280.479,250.546L281.429,250.311L281.82,249.489L282.965,249.342ZM328.036,255.448L328.036,256.094L326.807,256.094L327.198,255.36ZM300.334,254.949L300.669,255.448L299.72,255.448L299.189,254.714ZM381.485,252.747L380.871,253.158L380.312,252.836L380.787,252.278L381.401,252.337ZM362.021,248.696L361.77,249.166L361.072,249.166L360.374,248.52ZM366.992,247.698L366.908,248.608L366.126,248.285L366.35,246.964L367.048,246.964ZM362.859,246.084L363.557,246.641L363.334,246.964L361.463,246.407L361.854,245.673ZM370.846,245.35L370.483,245.35L370.538,244.674L371.32,244.616L371.237,245.262ZM51.799,203.173L53.503,205.524L54.536,205.759L55.15,206.582L56.547,211.312L56.379,213.779L55.932,214.925L54.592,215.072L52.749,216.453L48.56,221.769L46.773,222.18L45.768,222.915L41.495,223.473L39.233,221.358L38.004,221.358L33.648,219.39L32.028,217.921L30.8,215.895L28.621,215.483L27.756,214.514L28.705,212.957L29.543,212.869L29.85,212.369L30.855,207.904L30.548,206.758L31.33,205.201L37.697,203.32L39.01,203.644L40.322,204.701L45.069,205.348L47.164,205.024L49.258,203.497L51.101,202.762ZM365.903,243.559L365.512,244.351L363.808,244.439L365.205,243.148ZM27.365,191.566L27.449,192.536L26.136,192.301L26.443,191.331ZM158.39,124.515L159.312,125.721L160.094,125.898L158.781,127.693L157.915,127.84L156.296,127.045L155.514,126.045L156.519,124.161ZM532.812,99.082L533.064,99.553L533.762,99.318L533.594,99.877L533.901,99.877L533.287,100.466L533.119,101.526L532.812,100.054L531.974,98.906ZM521.195,98.994L521.112,99.642L520.413,99.141L519.492,100.054L519.324,99.082L519.017,99.141L520.19,98.729Z" stroke="none" fill="#A6BB8D"/></g><g id="img-group"/><g id="trip-group"><path class="trip-path" d="M570.003,109.909L494.561,98.108" stroke="#f0efeb" fill="none" stroke-width="1" opacity="0.8"/><path class="trip-path" d="M563.95,116.56L573.674,103.423L564.181,114.512L581.272,130.86L598.887,133.1L606.024,129.542L631.198,128.721L653.897,132.852L671.068,128.331L398.874,244.995L278.323,245.633" stroke="#fff275" fill="none" stroke-width="1" opacity="0.8"/><path class="trip-path" d="M286.716,245.405L294.105,240.947L280.97,247.962L294.344,240.968L310.432,246.666L319.434,243.93L333.975,228.222L301.568,254.786L308.282,248.354L284.614,239.84L256.413,244.335L237.805,254.277L247.715,241.161L250.778,191.297L231.764,151.787L216.237,132.452L237.744,127.416L355.883,96.517" stroke="#424b54" fill="none" stroke-width="1" opacity="0.8"/><path class="trip-path" d="M369.65,99.489L392.02,93.927L402.324,95.058L422.342,108.169L461.865,110.254L538.044,101.366L570.442,110.257" stroke="#8f2d56" fill="none" stroke-width="1" opacity="0.8"/><path class="trip-path" d="M577.377,94.198L565.803,76.462L553.053,66.944L545.832,60.665L525.417,42.588L514.15,32.527L499.734,17.576L474.074,-11.281L421.755,-70.527L409.602,-83.972L293.867,-213.356L251.436,-260.713L193.045,-325.625L139.515,-384.99L110.273,-417.341L100.78,-427.863L-39.43,-647.322L-88.295,-884.837L-120.256,-1039.664L-590.125,-3422.611L-593.589,-3440.309L-1241.108,-6135.506L-1651.614,-6785.434L-1695.946,-6828.689L-1806.033,-6935.121L-920.576,-5066.204L-949.142,-5203.739L-1692.488,-7143.472L-1704.031,-7120.14L-1071.52,-5785.243L-1077.358,-5812.673L-1124.057,-5946.043L-1712.741,-7111.659L-1955.964,-7418.073" stroke="#1565c0" fill="none" stroke-width="1" opacity="0.8"/></g><g id="dot-group"><circle class="dot" cx="570.0032170427694" cy="109.90880193527937" r="2" opacity="0.5" stroke="#f0efeb" fill="none" stroke-width="1"/><circle class="dot" cx="494.5608522252769" cy="98.10769367385183" r="2.8431876606683804" opacity="64.952506141942" stroke="#fff275" fill="none" stroke-width="1"/><circle class="dot" cx="563.950415196854" cy="116.56017248357057" r="2.0205655526992286" opacity="27.281163180492733" stroke="#fff275" fill="none" stroke-width="1"/><circle class="dot" cx="573.6743231988657" cy="103.42305242318434" r="2.6375321336760926" opacity="101.87992790393314" stroke="#fff275" fill="none" stroke-width="1"/><circle class="dot" cx="564.18060473265" cy="114.51150449623583" r="2.0616966580976865" opacity="59.125123412853306" stroke="#fff275" fill="none" stroke-width="1"/><circle class="dot" cx="581.2718383955362" cy="130.85991097161968" r="2.0205655526992286" opacity="0.6033223888136294" stroke="#fff275" fill="none" stroke-width="1"/><circle class="dot" cx="598.8872526104424" cy="133.1001896818152" r="2" opacity="0.5" stroke="#fff275" fill="none" stroke-width="1"/><circle class="dot" cx="606.0244856982681" cy="129.54234227539928" r="2" opacity="0.5" stroke="#fff275" fill="none" stroke-width="1"/><circle class="dot" cx="631.1983391271424" cy="128.7208879103382" r="2" opacity="0.5" stroke="#fff275" fill="none" stroke-width="1"/><circle class="dot" cx="653.8973156766915" cy="132.85213741852385" r="2.0205655526992286" opacity="3.5790071866461552" stroke="#fff275" fill="none" stroke-width="1"/><circle class="dot" cx="671.0675555589442" cy="128.3314128109796" r="5.22879177377892" opacity="147.05247629325189" stroke="#fff275" fill="none" stroke-width="1"/><circle class="dot" cx="398.87422687605067" cy="244.99519599461837" r="2.082262210796915" opacity="49.37148990884669" stroke="#fff275" fill="none" stroke-width="1"/><circle class="dot" cx="278.32301674758855" cy="245.63342058350008" r="2" opacity="0.5" stroke="#424b54" fill="none" stroke-width="1"/><circle class="dot" cx="286.7162663353338" cy="245.40523947729434" r="2.082262210796915" opacity="1.1612632884072278" stroke="#424b54" fill="none" stroke-width="1"/><circle class="dot" cx="294.10458858415586" cy="240.94683274441013" r="2.5552699228791775" opacity="24.925412715541984" stroke="#424b54" fill="none" stroke-width="1"/><circle class="dot" cx="280.9703401815095" cy="247.96223506195656" r="3.172236503856041" opacity="288.45949762358504" stroke="#424b54" fill="none" stroke-width="1"/><circle class="dot" cx="294.34422254229867" cy="240.96751104824943" r="2.2056555269922877" opacity="7.567251394852249" stroke="#424b54" fill="none" stroke-width="1"/><circle class="dot" cx="310.432110492191" cy="246.66552386443618" r="2.082262210796915" opacity="1.80186209905173" stroke="#424b54" fill="none" stroke-width="1"/><circle class="dot" cx="319.43366550189603" cy="243.92978543399113" r="2" opacity="0.5" stroke="#424b54" fill="none" stroke-width="1"/><circle class="dot" cx="333.9752076421464" cy="228.222453695299" r="2.8637532133676094" opacity="171.25057975340388" stroke="#424b54" fill="none" stroke-width="1"/><circle class="dot" cx="301.5679064304277" cy="254.7856075063237" r="2.2879177377892033" opacity="33.17053934286961" stroke="#424b54" fill="none" stroke-width="1"/><circle class="dot" cx="308.2816579998944" cy="248.35417319980115" r="2.0411311053984575" opacity="7.897883039055863" stroke="#424b54" fill="none" stroke-width="1"/><circle class="dot" cx="284.6141529991364" cy="239.83989459304303" r="2.0616966580976865" opacity="0.8719605997290658" stroke="#424b54" fill="none" stroke-width="1"/><circle class="dot" cx="256.4129290199453" cy="244.33510724999906" r="2.0205655526992286" opacity="0.6446513443390811" stroke="#424b54" fill="none" stroke-width="1"/><circle class="dot" cx="237.80511915586249" cy="254.27650647585597" r="2.5347043701799485" opacity="52.698470828645554" stroke="#424b54" fill="none" stroke-width="1"/><circle class="dot" cx="247.71498372988935" cy="241.16095301652058" r="2.0205655526992286" opacity="0.5413289555254518" stroke="#424b54" fill="none" stroke-width="1"/><circle class="dot" cx="250.77784264166985" cy="191.29738815623023" r="2.0205655526992286" opacity="0.6033223888136294" stroke="#424b54" fill="none" stroke-width="1"/><circle class="dot" cx="231.76351471037924" cy="151.78678774257787" r="2.2262210796915167" opacity="13.663272334856382" stroke="#424b54" fill="none" stroke-width="1"/><circle class="dot" cx="216.23707861300136" cy="132.45214548423428" r="2.185089974293059" opacity="7.629244828140426" stroke="#424b54" fill="none" stroke-width="1"/><circle class="dot" cx="237.74411163871991" cy="127.41634201528359" r="2.0205655526992286" opacity="46.47846302206507" stroke="#424b54" fill="none" stroke-width="1"/><circle class="dot" cx="355.8831216005492" cy="96.51673888048299" r="2" opacity="0.5" stroke="#8f2d56" fill="none" stroke-width="1"/><circle class="dot" cx="369.64976160568403" cy="99.48887962026765" r="2.102827763496144" opacity="10.232969026243886" stroke="#8f2d56" fill="none" stroke-width="1"/><circle class="dot" cx="392.0202739127526" cy="93.92711407460683" r="4.5501285347043705" opacity="83.03392418432713" stroke="#8f2d56" fill="none" stroke-width="1"/><circle class="dot" cx="402.32439374138994" cy="95.05841209602295" r="2" opacity="0.5" stroke="#8f2d56" fill="none" stroke-width="1"/><circle class="dot" cx="422.3424891526047" cy="108.1691044174313" r="2.1233933161953726" opacity="2.2358161320689733" stroke="#8f2d56" fill="none" stroke-width="1"/><circle class="dot" cx="461.86533154581775" cy="110.25386072582023" r="2.0205655526992286" opacity="0.5206644777627258" stroke="#8f2d56" fill="none" stroke-width="1"/><circle class="dot" cx="538.0442534375143" cy="101.36640999152769" r="10" opacity="1800.5" stroke="#8f2d56" fill="none" stroke-width="1"/><circle class="dot" cx="570.4424970229484" cy="110.25664081078321" r="2.185089974293059" opacity="176.70600188276353" stroke="#1565c0" fill="none" stroke-width="1"/><circle class="dot" cx="577.3770392069746" cy="94.19822762841886" r="2.0411311053984575" opacity="0.995947466305421" stroke="#1565c0" fill="none" stroke-width="1"/><circle class="dot" cx="565.8027913096375" cy="76.4616597423983" r="2.0205655526992286" opacity="0.7686382109154364" stroke="#1565c0" fill="none" stroke-width="1"/><circle class="dot" cx="553.0529671983459" cy="66.94363191367938" r="2.0205655526992286" opacity="0.6859802998645328" stroke="#1565c0" fill="none" stroke-width="1"/><circle class="dot" cx="545.8323461573746" cy="60.66466559913624" r="2" opacity="0.5" stroke="#1565c0" fill="none" stroke-width="1"/><circle class="dot" cx="525.4174238222658" cy="42.58778465306841" r="2" opacity="0.5" stroke="#1565c0" fill="none" stroke-width="1"/><circle class="dot" cx="514.1495781713966" cy="32.5265072727434" r="2" opacity="0.5" stroke="#1565c0" fill="none" stroke-width="1"/><circle class="dot" cx="499.73393425180984" cy="17.576190815213522" r="2" opacity="0.5" stroke="#1565c0" fill="none" stroke-width="1"/><circle class="dot" cx="474.07449143993654" cy="-11.281379786672005" r="2" opacity="0.5" stroke="#1565c0" fill="none" stroke-width="1"/><circle class="dot" cx="421.7549503783739" cy="-70.5267041796551" r="2" opacity="0.5" stroke="#1565c0" fill="none" stroke-width="1"/><circle class="dot" cx="409.60202887126434" cy="-83.97237542525272" r="2" opacity="0.5" stroke="#1565c0" fill="none" stroke-width="1"/><circle class="dot" cx="293.8673069167962" cy="-213.3563743890336" r="2" opacity="0.5" stroke="#1565c0" fill="none" stroke-width="1"/><circle class="dot" cx="251.43563784419894" cy="-260.71297179229896" r="2" opacity="0.5" stroke="#1565c0" fill="none" stroke-width="1"/><circle class="dot" cx="193.04467809136986" cy="-325.62507820191513" r="2.0205655526992286" opacity="0.6446513443390811" stroke="#1565c0" fill="none" stroke-width="1"/><circle class="dot" cx="139.51504208175902" cy="-384.9895570356466" r="2" opacity="0.5" stroke="#1565c0" fill="none" stroke-width="1"/><circle class="dot" cx="110.27340794289921" cy="-417.34143945312826" r="2" opacity="0.5" stroke="#1565c0" fill="none" stroke-width="1"/><circle class="dot" cx="100.77959251393622" cy="-427.8633526888225" r="2" opacity="0.5" stroke="#1565c0" fill="none" stroke-width="1"/><circle class="dot" cx="-39.43007546672379" cy="-647.3218979331186" r="2" opacity="0.5" stroke="#1565c0" fill="none" stroke-width="1"/><circle class="dot" cx="-88.295028162167" cy="-884.8366579500234" r="2.0205655526992286" opacity="0.7686382109154364" stroke="#1565c0" fill="none" stroke-width="1"/><circle class="dot" cx="-120.25588527563013" cy="-1039.664026514889" r="2" opacity="0.5" stroke="#1565c0" fill="none" stroke-width="1"/><circle class="dot" cx="-590.1252816277047" cy="-3422.6106751828156" r="2.0205655526992286" opacity="0.6033223888136294" stroke="#1565c0" fill="none" stroke-width="1"/><circle class="dot" cx="-593.5891784164924" cy="-3440.3088545698665" r="2" opacity="0.5" stroke="#1565c0" fill="none" stroke-width="1"/><circle class="dot" cx="-1241.1078823101707" cy="-6135.505897443036" r="2" opacity="0.5" stroke="#1565c0" fill="none" stroke-width="1"/><circle class="dot" cx="-1651.6139765905755" cy="-6785.43427838135" r="2" opacity="0.5" stroke="#1565c0" fill="none" stroke-width="1"/><circle class="dot" cx="-1695.946115293118" cy="-6828.689082385101" r="2" opacity="0.5" stroke="#1565c0" fill="none" stroke-width="1"/><circle class="dot" cx="-1806.0329517881364" cy="-6935.120693971499" r="2" opacity="0.5" stroke="#1565c0" fill="none" stroke-width="1"/><circle class="dot" cx="-920.5762259266849" cy="-5066.203932210878" r="2" opacity="0.5" stroke="#1565c0" fill="none" stroke-width="1"/><circle class="dot" cx="-949.1422237195511" cy="-5203.739004262485" r="2" opacity="0.5" stroke="#1565c0" fill="none" stroke-width="1"/><circle class="dot" cx="-1692.4880362684999" cy="-7143.471561007556" r="2" opacity="0.5" stroke="#1565c0" fill="none" stroke-width="1"/><circle class="dot" cx="-1704.0312560902494" cy="-7120.139628774234" r="2" opacity="0.5" stroke="#1565c0" fill="none" stroke-width="1"/><circle class="dot" cx="-1071.5200566580534" cy="-5785.242526574795" r="2" opacity="0.5" stroke="#1565c0" fill="none" stroke-width="1"/><circle class="dot" cx="-1077.357989080505" cy="-5812.6726388352035" r="2" opacity="0.5" stroke="#1565c0" fill="none" stroke-width="1"/><circle class="dot" cx="-1124.0567942487505" cy="-5946.043003116183" r="2" opacity="0.5" stroke="#1565c0" fill="none" stroke-width="1"/><circle class="dot" cx="-1712.7412247595894" cy="-7111.659070601889" r="2.0205655526992286" opacity="70.07729662709802" stroke="#1565c0" fill="none" stroke-width="1"/><circle class="dot" cx="-1955.9644915533463" cy="-7418.0727802468045" r="2" opacity="0.5" stroke="#1565c0" fill="none" stroke-width="1"/></g><g id="label-group"><text class="title" x="440" y="168" dominant-baseline="middle">Puerto Rico</text><text class="subtitle" x="440" y="188" dominant-baseline="middle">Dec.21,2022 ~ Dec.25,2022</text><text class="name" x="499.4040398859453" y="96.68609984351764" dominant-baseline="middle" fill="#fff275">Punta Fraile</text><text class="name" x="578.3118553325419" y="102.1042863563463" dominant-baseline="middle" fill="#fff275">Punta Cangrejos</text><text class="name" x="678.296347332723" y="125.71701692409015" dominant-baseline="middle" fill="#fff275">Playa Escondida</text><text class="name" x="298.65985850703504" y="239.66919778297054" dominant-baseline="middle" fill="#424b54">Costa Barrio</text><text class="name" x="286.14257668536555" y="246.37611681002855" dominant-baseline="middle" fill="#424b54">Isla Magueyes</text><text class="name" x="298.54987806929097" y="239.86468328475328" dominant-baseline="middle" fill="#424b54">Costa Barrio</text><text class="name" x="338.838960855514" y="226.7905770886152" dominant-baseline="middle" fill="#424b54">Yauco Barrio-Pueblo</text><text class="name" x="305.8558241682169" y="253.64164863742909" dominant-baseline="middle" fill="#424b54">Playa La Jungla</text><text class="name" x="242.33982352604244" y="253.009154290766" dominant-baseline="middle" fill="#424b54">Bahía Salinas Beach</text><text class="name" x="235.98973579007077" y="150.6736772027321" dominant-baseline="middle" fill="#424b54">Caguabo Barrio</text><text class="name" x="220.4221685872944" y="131.35960049708774" dominant-baseline="middle" fill="#424b54">Punta Higuero Lighthouse</text><text class="name" x="373.75258936918016" y="98.43746573851958" dominant-baseline="middle" fill="#8f2d56">Arecibo Barrio-Pueblo</text><text class="name" x="398.57040244745696" y="91.65204980725466" dominant-baseline="middle" fill="#8f2d56">Punta Las Tunas</text><text class="name" x="426.46588246880003" y="107.10740775933361" dominant-baseline="middle" fill="#8f2d56">Coliseo Sixto Escobar</text><text class="name" x="550.0442534375143" y="96.36640999152769" dominant-baseline="middle" fill="#8f2d56">Old San Juan</text><text class="name" x="574.6275869972415" y="109.16409582363669" dominant-baseline="middle" fill="#1565c0">Luis Muñoz Marín International Airport</text><text class="count" x="494.5608522252769" y="98.10769367385183" dominant-baseline="middle"/><text class="count" x="573.6743231988657" y="103.42305242318434" dominant-baseline="middle"/><text class="count" x="671.0675555589442" y="128.3314128109796" dominant-baseline="middle"/><text class="count" x="294.10458858415586" y="240.94683274441013" dominant-baseline="middle"/><text class="count" x="280.9703401815095" y="247.96223506195656" dominant-baseline="middle"/><text class="count" x="294.34422254229867" y="240.96751104824943" dominant-baseline="middle"/><text class="count" x="333.9752076421464" y="228.222453695299" dominant-baseline="middle"/><text class="count" x="301.5679064304277" y="254.7856075063237" dominant-baseline="middle"/><text class="count" x="237.80511915586249" y="254.27650647585597" dominant-baseline="middle"/><text class="count" x="231.76351471037924" y="151.78678774257787" dominant-baseline="middle"/><text class="count" x="216.23707861300136" y="132.45214548423428" dominant-baseline="middle"/><text class="count" x="369.64976160568403" y="99.48887962026765" dominant-baseline="middle"/><text class="count" x="392.0202739127526" y="93.92711407460683" dominant-baseline="middle"/><text class="count" x="422.3424891526047" y="108.1691044174313" dominant-baseline="middle"/><text class="count" x="538.0442534375143" y="101.36640999152769" dominant-baseline="middle"/><text class="count" x="570.4424970229484" y="110.25664081078321" dominant-baseline="middle"/></g></svg></svg>